Coordinates
version=1
nRows=34
nColumns=38
inDegrees=no

Units are S.I. units (second, meters, Newtons, ...)
If the header above contains a line with 'inDegrees', this indicates whether rotational values are in degrees (yes) or radians (no).

endheader
time	pelvis_tilt	pelvis_list	pelvis_rotation	pelvis_tx	pelvis_ty	pelvis_tz	hip_flexion_r	hip_adduction_r	hip_rotation_r	knee_angle_r	ankle_angle_r	subtalar_angle_r	mtp_angle_r	hip_flexion_l	hip_adduction_l	hip_rotation_l	knee_angle_l	ankle_angle_l	subtalar_angle_l	mtp_angle_l	lumbar_extension	lumbar_bending	lumbar_rotation	arm_flex_r	arm_add_r	arm_rot_r	elbow_flex_r	pro_sup_r	wrist_flex_r	wrist_dev_r	arm_flex_l	arm_add_l	arm_rot_l	elbow_flex_l	pro_sup_l	wrist_flex_l	wrist_dev_l
1.27	2.85623	1.31707	-1.23126	0.549807	1.02509	0.937291	-0.478351	0.0902978	-0.253814	0.368138	-0.121494	0	0	0.05144	-0.0556275	-0.255485	0.0156892	-0.246575	0	0	-0.374355	0.129991	-0.0300145	-0.223585	-0.259476	-0.26072	0.747302	0.369076	0	0	-0.145216	-0.328715	0.271638	0.691699	1.32848	0	0
1.28	2.85923	1.3165	-1.23737	0.54971	1.03607	0.936247	-0.483807	0.0857065	-0.250245	0.381823	-0.124073	0	0	0.0516852	-0.0565187	-0.262227	0.0420552	-0.251488	0	0	-0.374823	0.126234	-0.0273431	-0.223342	-0.259142	-0.256407	0.743236	0.367832	0	0	-0.148512	-0.328639	0.266977	0.689211	1.32782	0	0
1.29	2.87027	1.31385	-1.25207	0.549643	1.04734	0.935543	-0.491019	0.0792762	-0.246858	0.397113	-0.129114	0	0	0.0525083	-0.0580038	-0.277814	0.0877925	-0.246883	0	0	-0.377692	0.120734	-0.0246222	-0.223312	-0.26016	-0.247675	0.738517	0.368428	0	0	-0.152623	-0.329341	0.261971	0.688223	1.328	0	0
1.3	2.88646	1.30994	-1.27265	0.549544	1.05901	0.935132	-0.500178	0.0718473	-0.241842	0.410705	-0.137235	0	0	0.0505673	-0.0585555	-0.296895	0.134349	-0.233562	0	0	-0.381503	0.11394	-0.0216793	-0.22374	-0.261624	-0.238429	0.73351	0.369896	0	0	-0.157352	-0.330143	0.256492	0.687723	1.32721	0	0
1.31	2.90482	1.30646	-1.29506	0.549352	1.07097	0.934903	-0.508093	0.0636743	-0.236186	0.425845	-0.14773	0	0	0.0460977	-0.0563514	-0.312621	0.168127	-0.223985	0	0	-0.384356	0.106189	-0.0192022	-0.225377	-0.262046	-0.230744	0.728833	0.370975	0	0	-0.162225	-0.331104	0.251479	0.686717	1.32674	0	0
1.32	2.92395	1.30469	-1.31765	0.549096	1.08307	0.934841	-0.513248	0.0552111	-0.228393	0.442195	-0.159227	0	0	0.0394938	-0.0503194	-0.321207	0.184014	-0.228896	0	0	-0.385049	0.0976202	-0.0168864	-0.228324	-0.260173	-0.227336	0.723875	0.369674	0	0	-0.165964	-0.331946	0.247683	0.683571	1.32729	0	0
1.33	2.94238	1.30389	-1.33938	0.548869	1.0952	0.93502	-0.515682	0.0468318	-0.217367	0.460824	-0.173058	0	0	0.0313211	-0.0434553	-0.327468	0.190398	-0.245959	0	0	-0.384566	0.0889313	-0.0143862	-0.231603	-0.256496	-0.226508	0.718018	0.365899	0	0	-0.168684	-0.332643	0.244372	0.678993	1.32846	0	0
1.34	2.95844	1.30312	-1.3585	0.548532	1.10732	0.935445	-0.515929	0.0390226	-0.203033	0.482109	-0.190068	0	0	0.0218446	-0.0376865	-0.333045	0.19386	-0.268395	0	0	-0.383919	0.0812342	-0.0120667	-0.235372	-0.251971	-0.227826	0.712675	0.360579	0	0	-0.170701	-0.333091	0.241221	0.673974	1.32891	0	0
1.35	2.97099	1.30284	-1.37281	0.547988	1.1196	0.935927	-0.512719	0.0319527	-0.188604	0.507702	-0.210479	0	0	0.0138556	-0.0343467	-0.33851	0.201073	-0.288368	0	0	-0.3822	0.0750955	-0.0110412	-0.240928	-0.247252	-0.231761	0.709684	0.354623	0	0	-0.173308	-0.333716	0.238474	0.67	1.3299	0	0
1.36	2.97825	1.3038	-1.38054	0.547189	1.13206	0.9363	-0.504625	0.0254383	-0.175684	0.538916	-0.236237	0	0	0.0100307	-0.0346723	-0.3457	0.216924	-0.304004	0	0	-0.378233	0.071111	-0.0107034	-0.249449	-0.243441	-0.237384	0.710284	0.350434	0	0	-0.176431	-0.334219	0.23608	0.667177	1.33206	0	0
1.37	2.98177	1.30669	-1.3835	0.546103	1.14459	0.936499	-0.491212	0.018646	-0.16489	0.575385	-0.264301	0	0	0.010744	-0.0371969	-0.353448	0.23995	-0.313845	0	0	-0.371514	0.0689581	-0.0112075	-0.259165	-0.241912	-0.240348	0.711926	0.352446	0	0	-0.179679	-0.33448	0.234625	0.664752	1.33388	0	0
1.38	2.9842	1.30976	-1.38401	0.544849	1.1571	0.936764	-0.474796	0.0116538	-0.155888	0.615999	-0.296164	0	0	0.0118013	-0.0401039	-0.35968	0.263098	-0.321709	0	0	-0.363813	0.0681814	-0.0134281	-0.267395	-0.240906	-0.240941	0.711466	0.358029	0	0	-0.18275	-0.33491	0.234414	0.662387	1.33446	0	0
1.39	2.98941	1.31214	-1.38649	0.543523	1.16944	0.937244	-0.456056	0.00373929	-0.148567	0.659862	-0.332701	0	0	0.00990723	-0.0411319	-0.362611	0.280562	-0.325161	0	0	-0.356911	0.0672974	-0.017488	-0.273544	-0.239507	-0.24275	0.710042	0.362642	0	0	-0.185769	-0.335917	0.234792	0.661048	1.33385	0	0
1.4	3.00037	1.31353	-1.39493	0.542266	1.18149	0.937938	-0.435432	-0.00568483	-0.142273	0.705208	-0.374746	0	0	0.00422582	-0.0396434	-0.363387	0.292935	-0.320467	0	0	-0.35195	0.0648408	-0.0221364	-0.279279	-0.237928	-0.245413	0.710222	0.367305	0	0	-0.188512	-0.338108	0.235656	0.662139	1.33234	0	0
1.41	3.01813	1.31383	-1.41014	0.541074	1.19328	0.938842	-0.41315	-0.0170085	-0.137806	0.751257	-0.427855	0	0	-0.00493516	-0.0357937	-0.364063	0.302646	-0.309714	0	0	-0.349048	0.0605522	-0.0273078	-0.284387	-0.23585	-0.249214	0.71113	0.373012	0	0	-0.190674	-0.341588	0.237526	0.665419	1.32934	0	0
1.42	3.04187	1.31215	-1.43112	0.539927	1.20479	0.939967	-0.390624	-0.0301041	-0.135525	0.79908	-0.485184	0	0	-0.0184064	-0.0298399	-0.365934	0.309662	-0.297902	0	0	-0.348962	0.0550531	-0.0330233	-0.288616	-0.233492	-0.253556	0.712409	0.377969	0	0	-0.192074	-0.346264	0.240731	0.670931	1.32585	0	0
1.43	3.06808	1.3094	-1.45471	0.538769	1.21602	0.941143	-0.367151	-0.044061	-0.13354	0.848923	-0.536273	0	0	-0.0352153	-0.0221748	-0.368572	0.312825	-0.286859	0	0	-0.350328	0.0492034	-0.03899	-0.291856	-0.231827	-0.257016	0.713935	0.382171	0	0	-0.192697	-0.351451	0.244793	0.677587	1.32323	0	0
1.44	3.09255	1.30664	-1.47665	0.537571	1.22702	0.942223	-0.341543	-0.0580318	-0.13154	0.900452	-0.5823	0	0	-0.0536664	-0.0140904	-0.370967	0.312493	-0.275057	0	0	-0.351821	0.043903	-0.0451725	-0.294814	-0.230595	-0.260582	0.716403	0.385912	0	0	-0.192671	-0.356912	0.249848	0.685105	1.32116	0	0
1.45	3.11221	1.30403	-1.4934	0.536322	1.23777	0.943209	-0.314508	-0.0705393	-0.128232	0.9519	-0.620146	0	0	-0.072768	-0.00704756	-0.372035	0.309417	-0.263729	0	0	-0.353331	0.0400974	-0.051892	-0.298229	-0.229877	-0.264563	0.720864	0.389272	0	0	-0.191793	-0.362245	0.254839	0.693474	1.31796	0	0
1.46	3.12544	1.30297	-1.50392	0.535119	1.2482	0.944031	-0.284752	-0.0811412	-0.124781	1.00265	-0.650372	0	0	-0.0898339	-0.00194683	-0.371724	0.305225	-0.253509	0	0	-0.353579	0.0379403	-0.0583311	-0.301585	-0.229537	-0.268955	0.726061	0.392054	0	0	-0.189624	-0.367486	0.260591	0.701707	1.31569	0	0
1.47	3.13162	1.30328	-1.50784	0.534043	1.25834	0.944791	-0.252543	-0.0888797	-0.121052	1.05211	-0.671877	0	0	-0.10447	0.00048664	-0.370745	0.300594	-0.246085	0	0	-0.352731	0.0375869	-0.0643905	-0.303834	-0.22968	-0.272927	0.730273	0.393751	0	0	-0.185923	-0.372308	0.266627	0.708704	1.31579	0	0
1.48	3.13106	1.30466	-1.50514	0.533064	1.26817	0.945596	-0.217739	-0.0942048	-0.116264	1.1001	-0.683605	0	0	-0.116982	0.000458468	-0.367988	0.29516	-0.240381	0	0	-0.350898	0.0391176	-0.0703568	-0.304266	-0.230004	-0.276538	0.732424	0.395202	0	0	-0.180071	-0.376747	0.274114	0.713285	1.31797	0	0
1.49	3.12552	1.30658	-1.49747	0.532096	1.27781	0.946495	-0.182043	-0.0978186	-0.111504	1.14547	-0.674886	0	0	-0.128643	-0.000959192	-0.363409	0.287788	-0.237025	0	0	-0.348512	0.0421686	-0.0759969	-0.303997	-0.23101	-0.277961	0.733138	0.3989	0	0	-0.171943	-0.380317	0.282514	0.715133	1.32272	0	0
1.5	3.11721	1.30966	-1.48696	0.531102	1.28736	0.947392	-0.145601	-0.0997983	-0.107416	1.18715	-0.644807	0	0	-0.139112	-0.00280353	-0.357026	0.279221	-0.234933	0	0	-0.344774	0.0461524	-0.0812152	-0.303582	-0.232587	-0.278206	0.732893	0.404834	0	0	-0.161887	-0.382633	0.290965	0.714649	1.32969	0	0
1.51	3.10735	1.31198	-1.47481	0.530099	1.29678	0.948343	-0.110683	-0.101153	-0.104454	1.22379	-0.609027	0	0	-0.150525	-0.00503081	-0.351252	0.270756	-0.233196	0	0	-0.342148	0.0508085	-0.086563	-0.303062	-0.234411	-0.27782	0.733003	0.410031	0	0	-0.151248	-0.384365	0.297847	0.714497	1.33631	0	0
1.52	3.09538	1.31394	-1.46029	0.52906	1.30611	0.949294	-0.0769358	-0.101798	-0.102371	1.25475	-0.575617	0	0	-0.162443	-0.00750059	-0.346086	0.263095	-0.230257	0	0	-0.340005	0.0563872	-0.0920325	-0.3024	-0.236146	-0.278704	0.733411	0.412269	0	0	-0.139917	-0.38559	0.304036	0.714152	1.34237	0	0
1.53	3.0812	1.31551	-1.44347	0.528022	1.31541	0.950229	-0.0443782	-0.101852	-0.101746	1.27997	-0.547687	0	0	-0.17504	-0.0102326	-0.341328	0.255976	-0.225773	0	0	-0.338107	0.062709	-0.0967672	-0.302452	-0.238038	-0.279657	0.734158	0.413122	0	0	-0.127464	-0.386366	0.310247	0.713313	1.34846	0	0
1.54	3.06576	1.31602	-1.42574	0.527027	1.3247	0.951176	-0.0137603	-0.1014	-0.102229	1.29878	-0.529866	0	0	-0.189035	-0.0132546	-0.338579	0.248925	-0.221781	0	0	-0.337285	0.0692861	-0.10109	-0.30269	-0.240508	-0.279381	0.735319	0.414392	0	0	-0.114962	-0.387176	0.315811	0.713307	1.35398	0	0
1.55	3.04905	1.31776	-1.40608	0.525983	1.33389	0.951902	0.0178613	-0.101127	-0.104432	1.31292	-0.511903	0	0	-0.201182	-0.0163272	-0.335434	0.241979	-0.217094	0	0	-0.335048	0.0764313	-0.105196	-0.303711	-0.243378	-0.279101	0.736981	0.416071	0	0	-0.101111	-0.38736	0.321475	0.712511	1.36034	0	0
1.56	3.03014	1.31876	-1.38397	0.52506	1.34302	0.952561	0.0476798	-0.100216	-0.107768	1.32118	-0.49658	0	0	-0.213553	-0.0207385	-0.332535	0.235193	-0.212965	0	0	-0.333472	0.084144	-0.109126	-0.304408	-0.246169	-0.278999	0.738274	0.417725	0	0	-0.0871761	-0.387933	0.326479	0.712841	1.36593	0	0
1.57	3.01026	1.3196	-1.36081	0.524207	1.35218	0.953101	0.0760911	-0.0994046	-0.112384	1.32494	-0.480314	0	0	-0.225795	-0.0259235	-0.329148	0.227992	-0.208984	0	0	-0.33179	0.0921139	-0.112668	-0.305369	-0.248887	-0.279266	0.739736	0.419363	0	0	-0.0729452	-0.388448	0.330981	0.713684	1.37175	0	0
1.58	2.99143	1.31994	-1.33829	0.523327	1.36132	0.953533	0.102534	-0.0995224	-0.118897	1.324	-0.463788	0	0	-0.238067	-0.0313875	-0.325879	0.221028	-0.205402	0	0	-0.330391	0.100041	-0.116299	-0.306554	-0.251529	-0.27999	0.741635	0.420961	0	0	-0.0586173	-0.388649	0.33454	0.7152	1.37816	0	0
1.59	2.97594	1.31937	-1.31799	0.522329	1.37032	0.953879	0.126539	-0.101732	-0.128662	1.31904	-0.447477	0	0	-0.250825	-0.0364075	-0.322062	0.214596	-0.202058	0	0	-0.330175	0.107812	-0.120796	-0.307655	-0.254122	-0.281118	0.744529	0.422362	0	0	-0.044283	-0.38876	0.3366	0.718113	1.38425	0	0
1.6	2.9641	1.3183	-1.30125	0.521336	1.37927	0.954126	0.148666	-0.10617	-0.141009	1.3107	-0.431578	0	0	-0.264516	-0.0405045	-0.318127	0.207857	-0.198757	0	0	-0.330776	0.114844	-0.125462	-0.308222	-0.256433	-0.282617	0.747757	0.423366	0	0	-0.0304087	-0.388724	0.336642	0.72241	1.3891	0	0
